HIERARCHY
ROOT Hips
{
	OFFSET 46.596298 -34.354015 99.067993
	CHANNELS 6 Xposition Yposition Zposition Xrotation Yrotation Zrotation
	JOINT spine
	{
		OFFSET 0.000000 -0.477356 8.301041
		CHANNELS 3 Xrotation Yrotation Zrotation
		JOINT spine1
		{
			OFFSET 0.000000 0.000000 10.456497
			CHANNELS 3 Xrotation Yrotation Zrotation
			JOINT spine2
			{
				OFFSET 0.000000 0.000000 10.019203
				CHANNELS 3 Xrotation Yrotation Zrotation
				JOINT Neck
				{
					OFFSET 0.000000 -1.226418 25.723503
					CHANNELS 3 Xrotation Yrotation Zrotation
					JOINT Head
					{
						OFFSET 0.000000 0.000000 7.771744
						CHANNELS 3 Xrotation Yrotation Zrotation
						End Site
						{
							OFFSET 0.000000 6.203938 18.811996
						}
					}
				}
				JOINT RightShoulder
				{
					OFFSET -4.218800 0.587437 10.820000
					CHANNELS 3 Xrotation Yrotation Zrotation
					JOINT RightArm
					{
						OFFSET 0.000000 -0.000004 14.191406
						CHANNELS 3 Xrotation Yrotation Zrotation
						JOINT RightArmRoll
						{
							OFFSET 0.000000 0.000000 7.164078
							CHANNELS 3 Xrotation Yrotation Zrotation
							JOINT RightForeArm
							{
								OFFSET 0.000000 -0.000004 20.866501
								CHANNELS 3 Xrotation Yrotation Zrotation
								JOINT RightForeArmRoll
								{
									OFFSET 0.000000 0.000000 8.039215
									CHANNELS 3 Xrotation Yrotation Zrotation
									JOINT RightHand
									{
										OFFSET 0.000000 -0.000004 16.132996
										CHANNELS 3 Xrotation Yrotation Zrotation
										End Site
										{
											OFFSET 0.000000 0.000000 0.100006
										}
									}
								}
							}
						}
					}
				}
				JOINT LeftShoulder
				{
					OFFSET 4.218800 0.587437 10.820000
					CHANNELS 3 Xrotation Yrotation Zrotation
					JOINT LeftArm
					{
						OFFSET 0.000000 -0.000004 14.191406
						CHANNELS 3 Xrotation Yrotation Zrotation
						JOINT LeftArmRoll
						{
							OFFSET 0.000000 0.000000 7.164078
							CHANNELS 3 Xrotation Yrotation Zrotation
							JOINT LeftForeArm
							{
								OFFSET 0.000000 -0.000004 20.866501
								CHANNELS 3 Xrotation Yrotation Zrotation
								JOINT LeftForeArmRoll
								{
									OFFSET 0.000000 0.000000 8.039215
									CHANNELS 3 Xrotation Yrotation Zrotation
									JOINT LeftHand
									{
										OFFSET 0.000000 -0.000004 16.132996
										CHANNELS 3 Xrotation Yrotation Zrotation
										End Site
										{
											OFFSET 0.000000 0.000000 0.100006
										}
									}
								}
							}
						}
					}
				}
			}
		}
	}
	JOINT RightUpLeg
	{
		OFFSET -7.357731 1.131809 -1.349213
		CHANNELS 3 Xrotation Yrotation Zrotation
		JOINT RightUpLegRoll
		{
			OFFSET 0.000000 -0.000004 18.916801
			CHANNELS 3 Xrotation Yrotation Zrotation
			JOINT RightLeg
			{
				OFFSET 0.000000 0.000004 -23.425598
				CHANNELS 3 Xrotation Yrotation Zrotation
				JOINT RightLegRoll
				{
					OFFSET 0.000000 -0.000004 23.502304
					CHANNELS 3 Xrotation Yrotation Zrotation
					JOINT RightFoot
					{
						OFFSET 0.000000 -0.000004 19.561714
						CHANNELS 3 Xrotation Yrotation Zrotation
						JOINT RightToeBase
						{
							OFFSET 0.000000 -0.000004 16.352600
							CHANNELS 3 Xrotation Yrotation Zrotation
							End Site
							{
								OFFSET 0.006931 0.912838 7.919434
							}
						}
					}
				}
			}
		}
	}
	JOINT LeftUpLeg
	{
		OFFSET 7.357731 1.131809 -1.349213
		CHANNELS 3 Xrotation Yrotation Zrotation
		JOINT LeftUpLegRoll
		{
			OFFSET 0.000000 -0.000004 18.916901
			CHANNELS 3 Xrotation Yrotation Zrotation
			JOINT LeftLeg
			{
				OFFSET 0.000000 -0.000004 23.425507
				CHANNELS 3 Xrotation Yrotation Zrotation
				JOINT LeftLegRoll
				{
					OFFSET 0.000000 -0.000004 23.719498
					CHANNELS 3 Xrotation Yrotation Zrotation
					JOINT LeftFoot
					{
						OFFSET 0.000000 -0.000004 19.344406
						CHANNELS 3 Xrotation Yrotation Zrotation
						JOINT LeftToeBase
						{
							OFFSET 0.000000 -0.000004 16.352600
							CHANNELS 3 Xrotation Yrotation Zrotation
							End Site
							{
								OFFSET -0.031063 0.912838 7.919434
							}
						}
					}
				}
			}
		}
	}
}
MOTION
Frames: 4
Frame Time: 0.041667
49.597797 0.931057 55.346992 -32.008992 -1.030703 7.615431 4.019276 -0.253058 -1.140230 12.028672 -0.601202 -2.245989 13.673341 -0.630161 -2.238608 24.126286 -0.550732 -1.875508 -6.848290 1.493682 -1.961953 -6.451468 -73.390465 -8.734001 109.817202 -54.238614 65.933592 -0.000001 0.000002 -0.000004 97.293477 -1.926538 -7.362202 0.000005 0.000010 -3.009888 -4.999982 -8.000067 -0.000008 3.923662 65.001544 -3.683711 109.738976 51.979560 -96.736297 0.000001 -0.000000 0.000001 76.384874 4.240902 0.420394 0.000008 -0.000007 3.007290 -4.999675 7.999696 -0.000037 -54.571982 -153.342077 13.988811 179.999991 0.000007 -1.650004 82.646744 2.579406 0.553773 -0.000005 -0.000001 2.194307 74.832352 9.037044 -4.875040 25.460290 -7.350663 0.008614 -58.462171 166.179049 -7.899446 0.000011 0.000013 -2.030660 -99.389771 -5.093065 -4.877552 -0.000010 -0.000001 -2.577498 75.176621 -8.552222 3.461550 26.070576 7.354201 -0.082712 
49.600998 0.935047 55.351994 -32.010399 -1.030763 7.614920 4.019498 -0.253179 -1.140140 12.029771 -0.601074 -2.246683 13.674440 -0.629889 -2.239281 24.158738 -0.561566 -1.876574 -6.855437 1.488189 -1.963355 -6.446889 -73.409398 -8.730385 109.690229 -54.316793 65.903614 0.000001 -0.000000 -0.000009 97.288470 -1.932954 -7.355880 0.000002 0.000008 -3.009890 -4.999981 -8.000072 -0.000008 3.914213 64.998389 -3.673468 109.756823 52.113882 -96.634862 0.000000 -0.000000 0.000001 76.588694 4.199103 0.461620 0.000008 -0.000007 3.007290 -4.999674 7.999699 -0.000040 -54.568379 -153.344919 13.987503 179.999991 0.000005 -1.650004 82.650849 2.578434 0.553420 -0.000005 -0.000002 2.194310 74.830364 9.036850 -4.873305 25.460293 -7.350664 0.008612 -58.458920 166.177232 -7.898683 0.000011 0.000014 -2.030559 -99.386499 -5.092158 -4.874323 -0.000010 -0.000001 -2.577538 75.171416 -8.552247 3.461350 26.075321 7.354200 -0.082720 
49.599297 0.932018 55.351700 -32.011696 -1.030671 7.614234 4.019656 -0.253288 -1.140021 12.030773 -0.600908 -2.247338 13.675342 -0.629575 -2.239917 24.190387 -0.573024 -1.877464 -6.861589 1.483086 -1.964666 -6.442563 -73.428837 -8.727080 109.564349 -54.392994 65.875296 0.000002 0.000000 -0.000004 97.283600 -1.939257 -7.347561 0.000002 0.000007 -3.009891 -4.999984 -8.000068 -0.000011 3.904040 64.994639 -3.662478 109.774957 52.246811 -96.532539 0.000001 -0.000001 0.000003 76.793627 4.157727 0.503207 0.000011 -0.000005 3.007289 -4.999678 7.999696 -0.000040 -54.564991 -153.347869 13.985896 179.999991 0.000006 -1.650004 82.655650 2.577306 0.552936 -0.000005 -0.000001 2.194308 74.827441 9.036843 -4.871672 25.460292 -7.350662 0.008612 -58.455580 166.175361 -7.898657 0.000010 0.000009 -2.030470 -99.383146 -5.091413 -4.872117 -0.000010 -0.000001 -2.577580 75.166054 -8.552197 3.461051 26.080176 7.354202 -0.082718 
49.600597 0.932739 55.350792 -32.012895 -1.030480 7.613422 4.019776 -0.253391 -1.139873 12.031670 -0.600718 -2.247960 13.676238 -0.629230 -2.240520 24.221442 -0.584921 -1.878229 -6.867068 1.478234 -1.965917 -6.438477 -73.448665 -8.724070 109.438612 -54.468033 65.847415 0.000000 0.000000 -0.000005 97.278778 -1.945718 -7.341231 0.000001 0.000005 -3.009889 -4.999982 -8.000069 -0.000012 3.893341 64.990520 -3.650948 109.792504 52.379136 -96.428590 0.000002 -0.000001 0.000001 76.999311 4.116727 0.545265 0.000009 -0.000010 3.007289 -4.999675 7.999700 -0.000035 -54.561467 -153.351544 13.985066 179.999991 0.000005 -1.650005 82.661135 2.576011 0.552229 -0.000005 -0.000002 2.194309 74.824053 9.036864 -4.870097 25.460295 -7.350661 0.008613 -58.452452 166.172984 -7.898254 0.000010 0.000012 -2.030390 -99.379614 -5.090577 -4.868886 -0.000010 -0.000002 -2.577640 75.160392 -8.552237 3.460815 26.085121 7.354202 -0.082719 
